<svg width="157" height="25" viewBox="0 0 157 25" fill="none" xmlns="http://www.w3.org/2000/svg">
<g clip-path="url(#clip0_136_98)">
<path fill-rule="evenodd" clip-rule="evenodd" d="M132.053 9.6027C132.196 9.16594 132.6 8.87183 133.06 8.87183H141.03L143.491 1.2924V1.29094C143.635 0.854173 144.04 0.560059 144.5 0.560059C144.959 0.560059 145.365 0.854173 145.508 1.29242L147.971 8.87183H155.94C156.4 8.87183 156.805 9.16594 156.947 9.6027C157.09 10.0395 156.937 10.5159 156.563 10.788L150.115 15.4733L152.578 23.0542C152.721 23.4924 152.563 23.9689 152.19 24.238C152.005 24.3718 151.787 24.4397 151.569 24.4397C151.352 24.4397 151.134 24.3718 150.947 24.2365L144.5 19.5527L138.055 24.2365C137.683 24.5071 137.181 24.5071 136.809 24.238C136.435 23.9689 136.28 23.4924 136.422 23.0527L138.885 15.4733L132.435 10.788C132.063 10.5159 131.909 10.0395 132.053 9.60272" fill="black"/>
</g>
<g clip-path="url(#clip1_136_98)">
<path fill-rule="evenodd" clip-rule="evenodd" d="M99.0532 9.6027C99.1958 9.16594 99.6002 8.87183 100.06 8.87183H108.03L110.491 1.2924V1.29094C110.635 0.854173 111.04 0.560059 111.5 0.560059C111.959 0.560059 112.365 0.854173 112.508 1.29242L114.971 8.87183H122.94C123.4 8.87183 123.805 9.16594 123.947 9.6027C124.09 10.0395 123.937 10.5159 123.563 10.788L117.115 15.4733L119.578 23.0542C119.721 23.4924 119.563 23.9689 119.19 24.238C119.005 24.3718 118.787 24.4397 118.569 24.4397C118.352 24.4397 118.134 24.3718 117.947 24.2365L111.5 19.5527L105.055 24.2365C104.683 24.5071 104.181 24.5071 103.809 24.238C103.435 23.9689 103.28 23.4924 103.422 23.0527L105.885 15.4733L99.4355 10.788C99.0634 10.5159 98.909 10.0395 99.0532 9.60272" fill="black"/>
</g>
<g clip-path="url(#clip2_136_98)">
<path fill-rule="evenodd" clip-rule="evenodd" d="M66.0532 9.6027C66.1958 9.16594 66.6002 8.87183 67.0605 8.87183H75.0296L77.4914 1.2924V1.29094C77.6355 0.854173 78.0399 0.560059 78.5002 0.560059C78.959 0.560059 79.3649 0.854173 79.5076 1.29242L81.9708 8.87183H89.9399C90.4002 8.87183 90.8046 9.16594 90.9473 9.6027C91.0899 10.0395 90.937 10.5159 90.5634 10.788L84.1149 15.4733L86.5782 23.0542C86.7208 23.4924 86.5634 23.9689 86.1899 24.238C86.0046 24.3718 85.787 24.4397 85.5693 24.4397C85.3517 24.4397 85.134 24.3718 84.9473 24.2365L78.5002 19.5527L72.0546 24.2365C71.6826 24.5071 71.1811 24.5071 70.809 24.238C70.4355 23.9689 70.2796 23.4924 70.4223 23.0527L72.8855 15.4733L66.4355 10.788C66.0634 10.5159 65.909 10.0395 66.0532 9.60272" fill="black"/>
</g>
<g clip-path="url(#clip3_136_98)">
<path fill-rule="evenodd" clip-rule="evenodd" d="M33.0532 9.6027C33.1958 9.16594 33.6002 8.87183 34.0605 8.87183H42.0296L44.4914 1.2924V1.29094C44.6355 0.854173 45.0399 0.560059 45.5002 0.560059C45.959 0.560059 46.3649 0.854173 46.5076 1.29242L48.9708 8.87183H56.9399C57.4002 8.87183 57.8046 9.16594 57.9473 9.6027C58.0899 10.0395 57.937 10.5159 57.5634 10.788L51.1149 15.4733L53.5782 23.0542C53.7208 23.4924 53.5634 23.9689 53.1899 24.238C53.0046 24.3718 52.787 24.4397 52.5693 24.4397C52.3517 24.4397 52.134 24.3718 51.9473 24.2365L45.5002 19.5527L39.0546 24.2365C38.6826 24.5071 38.1811 24.5071 37.809 24.238C37.4355 23.9689 37.2796 23.4924 37.4223 23.0527L39.8855 15.4733L33.4355 10.788C33.0634 10.5159 32.909 10.0395 33.0532 9.60272" fill="black"/>
</g>
<g clip-path="url(#clip4_136_98)">
<path fill-rule="evenodd" clip-rule="evenodd" d="M0.0531503 9.6027C0.195793 9.16594 0.600208 8.87183 1.06049 8.87183H9.02962L11.4914 1.2924V1.29094C11.6355 0.854173 12.0399 0.560059 12.5002 0.560059C12.959 0.560059 13.3649 0.854173 13.5076 1.29242L15.9708 8.87183H23.9399C24.4002 8.87183 24.8046 9.16594 24.9473 9.6027C25.0899 10.0395 24.937 10.5159 24.5634 10.788L18.1149 15.4733L20.5782 23.0542C20.7208 23.4924 20.5634 23.9689 20.1899 24.238C20.0046 24.3718 19.787 24.4397 19.5693 24.4397C19.3517 24.4397 19.134 24.3718 18.9473 24.2365L12.5002 19.5527L6.05462 24.2365C5.68256 24.5071 5.18109 24.5071 4.80902 24.238C4.43549 23.9689 4.27962 23.4924 4.42226 23.0527L6.88549 15.4733L0.435494 10.788C0.0634369 10.5159 -0.0909774 10.0395 0.0531503 9.60272" fill="black"/>
</g>
<defs>
<clipPath id="clip0_136_98">
<rect width="25" height="25" fill="white" transform="matrix(-1 0 0 1 157 0)"/>
</clipPath>
<clipPath id="clip1_136_98">
<rect width="25" height="25" fill="white" transform="matrix(-1 0 0 1 124 0)"/>
</clipPath>
<clipPath id="clip2_136_98">
<rect width="25" height="25" fill="white" transform="matrix(-1 0 0 1 91 0)"/>
</clipPath>
<clipPath id="clip3_136_98">
<rect width="25" height="25" fill="white" transform="matrix(-1 0 0 1 58 0)"/>
</clipPath>
<clipPath id="clip4_136_98">
<rect width="25" height="25" fill="white" transform="matrix(-1 0 0 1 25 0)"/>
</clipPath>
</defs>
</svg>
