<svg width="157" height="25" viewBox="0 0 157 25" fill="none" xmlns="http://www.w3.org/2000/svg">
<g clip-path="url(#clip0_136_98)">
<path fill-rule="evenodd" clip-rule="evenodd" d="M24.9468 9.6027C24.8042 9.16594 24.3998 8.87183 23.9395 8.87183H15.9704L13.5086 1.2924V1.29094C13.3645 0.854173 12.9601 0.560059 12.4998 0.560059C12.041 0.560059 11.6351 0.854173 11.4924 1.29242L9.02921 8.87183H1.06009C0.599805 8.87183 0.195378 9.16594 0.0527343 9.6027C-0.0899089 10.0395 0.0630208 10.5159 0.436562 10.788L6.88509 15.4733L4.42185 23.0542C4.27921 23.4924 4.43656 23.9689 4.81009 24.238C4.99538 24.3718 5.21303 24.4397 5.43066 24.4397C5.64832 24.4397 5.86598 24.3718 6.05273 24.2365L12.4998 19.5527L18.9454 24.2365C19.3174 24.5071 19.8189 24.5071 20.191 24.238C20.5645 23.9689 20.7204 23.4924 20.5777 23.0527L18.1145 15.4733L24.5645 10.788C24.9366 10.5159 25.091 10.0395 24.9468 9.60272" fill="black"/>
</g>
<g clip-path="url(#clip1_136_98)">
<path fill-rule="evenodd" clip-rule="evenodd" d="M57.9468 9.6027C57.8042 9.16594 57.3998 8.87183 56.9395 8.87183H48.9704L46.5086 1.2924V1.29094C46.3645 0.854173 45.9601 0.560059 45.4998 0.560059C45.041 0.560059 44.6351 0.854173 44.4924 1.29242L42.0292 8.87183H34.0601C33.5998 8.87183 33.1954 9.16594 33.0527 9.6027C32.9101 10.0395 33.063 10.5159 33.4366 10.788L39.8851 15.4733L37.4218 23.0542C37.2792 23.4924 37.4366 23.9689 37.8101 24.238C37.9954 24.3718 38.213 24.4397 38.4307 24.4397C38.6483 24.4397 38.866 24.3718 39.0527 24.2365L45.4998 19.5527L51.9454 24.2365C52.3174 24.5071 52.8189 24.5071 53.191 24.238C53.5645 23.9689 53.7204 23.4924 53.5777 23.0527L51.1145 15.4733L57.5645 10.788C57.9366 10.5159 58.091 10.0395 57.9468 9.60272" fill="black"/>
</g>
<g clip-path="url(#clip2_136_98)">
<path fill-rule="evenodd" clip-rule="evenodd" d="M90.9468 9.6027C90.8042 9.16594 90.3998 8.87183 89.9395 8.87183H81.9704L79.5086 1.2924V1.29094C79.3645 0.854173 78.9601 0.560059 78.4998 0.560059C78.041 0.560059 77.6351 0.854173 77.4924 1.29242L75.0292 8.87183H67.0601C66.5998 8.87183 66.1954 9.16594 66.0527 9.6027C65.9101 10.0395 66.063 10.5159 66.4366 10.788L72.8851 15.4733L70.4218 23.0542C70.2792 23.4924 70.4366 23.9689 70.8101 24.238C70.9954 24.3718 71.213 24.4397 71.4307 24.4397C71.6483 24.4397 71.866 24.3718 72.0527 24.2365L78.4998 19.5527L84.9454 24.2365C85.3174 24.5071 85.8189 24.5071 86.191 24.238C86.5645 23.9689 86.7204 23.4924 86.5777 23.0527L84.1145 15.4733L90.5645 10.788C90.9366 10.5159 91.091 10.0395 90.9468 9.60272" fill="black"/>
</g>
<g clip-path="url(#clip3_136_98)">
<path fill-rule="evenodd" clip-rule="evenodd" d="M123.947 9.6027C123.804 9.16594 123.4 8.87183 122.94 8.87183H114.97L112.509 1.2924V1.29094C112.365 0.854173 111.96 0.560059 111.5 0.560059C111.041 0.560059 110.635 0.854173 110.492 1.29242L108.029 8.87183H100.06C99.5998 8.87183 99.1954 9.16594 99.0527 9.6027C98.9101 10.0395 99.063 10.5159 99.4366 10.788L105.885 15.4733L103.422 23.0542C103.279 23.4924 103.437 23.9689 103.81 24.238C103.995 24.3718 104.213 24.4397 104.431 24.4397C104.648 24.4397 104.866 24.3718 105.053 24.2365L111.5 19.5527L117.945 24.2365C118.317 24.5071 118.819 24.5071 119.191 24.238C119.565 23.9689 119.72 23.4924 119.578 23.0527L117.115 15.4733L123.565 10.788C123.937 10.5159 124.091 10.0395 123.947 9.60272" fill="black"/>
</g>
<g clip-path="url(#clip4_136_98)">
<path fill-rule="evenodd" clip-rule="evenodd" d="M156.947 9.6027C156.804 9.16594 156.4 8.87183 155.94 8.87183H147.97L145.509 1.2924V1.29094C145.365 0.854173 144.96 0.560059 144.5 0.560059C144.041 0.560059 143.635 0.854173 143.492 1.29242L141.029 8.87183H133.06C132.6 8.87183 132.195 9.16594 132.053 9.6027C131.91 10.0395 132.063 10.5159 132.437 10.788L138.885 15.4733L136.422 23.0542C136.279 23.4924 136.437 23.9689 136.81 24.238C136.995 24.3718 137.213 24.4397 137.431 24.4397C137.648 24.4397 137.866 24.3718 138.053 24.2365L144.5 19.5527L150.945 24.2365C151.317 24.5071 151.819 24.5071 152.191 24.238C152.565 23.9689 152.72 23.4924 152.578 23.0527L150.115 15.4733L156.565 10.788C156.937 10.5159 157.091 10.0395 156.947 9.60272" fill="black"/>
</g>
<defs>
<clipPath id="clip0_136_98">
<rect width="25" height="25" fill="white"/>
</clipPath>
<clipPath id="clip1_136_98">
<rect width="25" height="25" fill="white" transform="translate(33)"/>
</clipPath>
<clipPath id="clip2_136_98">
<rect width="25" height="25" fill="white" transform="translate(66)"/>
</clipPath>
<clipPath id="clip3_136_98">
<rect width="25" height="25" fill="white" transform="translate(99)"/>
</clipPath>
<clipPath id="clip4_136_98">
<rect width="25" height="25" fill="white" transform="translate(132)"/>
</clipPath>
</defs>
</svg>
