<svg width="157" height="26" viewBox="0 0 157 26" fill="none" xmlns="http://www.w3.org/2000/svg">
<g clip-path="url(#clip0_136_97)">
<path fill-rule="evenodd" clip-rule="evenodd" d="M17.0076 15.4586C16.637 15.7292 16.4826 16.2042 16.6238 16.6439L18.787 23.3027L13.1223 19.1865C12.7488 18.9159 12.2488 18.9159 11.8767 19.1865L6.21198 23.3027L8.3767 16.6409C8.51787 16.2042 8.36345 15.7292 7.9914 15.4586L2.32522 11.3424H9.32815C9.78845 11.3424 10.1943 11.0468 10.3355 10.6101L12.5002 3.94977L14.6635 10.6086C14.7319 10.8219 14.8664 11.0079 15.0474 11.1398C15.2285 11.2717 15.4468 11.3427 15.6708 11.3424H22.6752L17.0076 15.4586ZM24.9473 10.6042C24.8046 10.1659 24.4002 9.87183 23.9399 9.87183H15.9693L13.5076 2.2924C13.3649 1.85419 12.9605 1.56006 12.5002 1.56006C12.0399 1.56006 11.634 1.85417 11.4929 2.29242L9.02963 9.87183H1.05905C0.598753 9.87183 0.194339 10.1659 0.0516827 10.6042C-0.0894892 11.0424 0.0649249 11.5174 0.436982 11.788L6.88551 16.4718L4.4208 24.0527C4.27963 24.4909 4.43404 24.9659 4.80757 25.2365C4.99286 25.3718 5.21198 25.4395 5.42815 25.4395C5.64728 25.4395 5.8664 25.3718 6.05168 25.2351L12.5002 20.5512L18.9458 25.2351C19.3179 25.5071 19.8193 25.5071 20.1929 25.2365C20.5649 24.9659 20.7193 24.4909 20.5782 24.0512L18.1135 16.4718L24.562 11.788C24.9355 11.5174 25.0899 11.0424 24.9473 10.6042H24.9473Z" fill="black"/>
</g>
<g clip-path="url(#clip1_136_97)">
<path fill-rule="evenodd" clip-rule="evenodd" d="M57.9468 10.6027C57.8042 10.1659 57.3998 9.87183 56.9395 9.87183H48.9704L46.5086 2.2924V2.29094C46.3645 1.85417 45.9601 1.56006 45.4998 1.56006C45.041 1.56006 44.6351 1.85417 44.4924 2.29242L42.0292 9.87183H34.0601C33.5998 9.87183 33.1954 10.1659 33.0527 10.6027C32.9101 11.0395 33.063 11.5159 33.4366 11.788L39.8851 16.4733L37.4218 24.0542C37.2792 24.4924 37.4366 24.9689 37.8101 25.238C37.9954 25.3718 38.213 25.4397 38.4307 25.4397C38.6483 25.4397 38.866 25.3718 39.0527 25.2365L45.4998 20.5527L51.9454 25.2365C52.3174 25.5071 52.8189 25.5071 53.191 25.238C53.5645 24.9689 53.7204 24.4924 53.5777 24.0527L51.1145 16.4733L57.5645 11.788C57.9366 11.5159 58.091 11.0395 57.9468 10.6027" fill="black"/>
</g>
<g clip-path="url(#clip2_136_97)">
<path fill-rule="evenodd" clip-rule="evenodd" d="M90.9468 10.6027C90.8042 10.1659 90.3998 9.87183 89.9395 9.87183H81.9704L79.5086 2.2924V2.29094C79.3645 1.85417 78.9601 1.56006 78.4998 1.56006C78.041 1.56006 77.6351 1.85417 77.4924 2.29242L75.0292 9.87183H67.0601C66.5998 9.87183 66.1954 10.1659 66.0527 10.6027C65.9101 11.0395 66.063 11.5159 66.4366 11.788L72.8851 16.4733L70.4218 24.0542C70.2792 24.4924 70.4366 24.9689 70.8101 25.238C70.9954 25.3718 71.213 25.4397 71.4307 25.4397C71.6483 25.4397 71.866 25.3718 72.0527 25.2365L78.4998 20.5527L84.9454 25.2365C85.3174 25.5071 85.8189 25.5071 86.191 25.238C86.5645 24.9689 86.7204 24.4924 86.5777 24.0527L84.1145 16.4733L90.5645 11.788C90.9366 11.5159 91.091 11.0395 90.9468 10.6027" fill="black"/>
</g>
<g clip-path="url(#clip3_136_97)">
<path fill-rule="evenodd" clip-rule="evenodd" d="M123.947 10.6027C123.804 10.1659 123.4 9.87183 122.94 9.87183H114.97L112.509 2.2924V2.29094C112.365 1.85417 111.96 1.56006 111.5 1.56006C111.041 1.56006 110.635 1.85417 110.492 2.29242L108.029 9.87183H100.06C99.5998 9.87183 99.1954 10.1659 99.0527 10.6027C98.9101 11.0395 99.063 11.5159 99.4366 11.788L105.885 16.4733L103.422 24.0542C103.279 24.4924 103.437 24.9689 103.81 25.238C103.995 25.3718 104.213 25.4397 104.431 25.4397C104.648 25.4397 104.866 25.3718 105.053 25.2365L111.5 20.5527L117.945 25.2365C118.317 25.5071 118.819 25.5071 119.191 25.238C119.565 24.9689 119.72 24.4924 119.578 24.0527L117.115 16.4733L123.565 11.788C123.937 11.5159 124.091 11.0395 123.947 10.6027" fill="black"/>
</g>
<g clip-path="url(#clip4_136_97)">
<path fill-rule="evenodd" clip-rule="evenodd" d="M156.947 9.6027C156.804 9.16594 156.4 8.87183 155.94 8.87183H147.97L145.509 1.2924V1.29094C145.365 0.854173 144.96 0.560059 144.5 0.560059C144.041 0.560059 143.635 0.854173 143.492 1.29242L141.029 8.87183H133.06C132.6 8.87183 132.195 9.16594 132.053 9.6027C131.91 10.0395 132.063 10.5159 132.437 10.788L138.885 15.4733L136.422 23.0542C136.279 23.4924 136.437 23.9689 136.81 24.238C136.995 24.3718 137.213 24.4397 137.431 24.4397C137.648 24.4397 137.866 24.3718 138.053 24.2365L144.5 19.5527L150.945 24.2365C151.317 24.5071 151.819 24.5071 152.191 24.238C152.565 23.9689 152.72 23.4924 152.578 23.0527L150.115 15.4733L156.565 10.788C156.937 10.5159 157.091 10.0395 156.947 9.60272" fill="black"/>
</g>
<defs>
<clipPath id="clip0_136_97">
<rect width="25" height="25" fill="white" transform="translate(0 1)"/>
</clipPath>
<clipPath id="clip1_136_97">
<rect width="25" height="25" fill="white" transform="translate(33 1)"/>
</clipPath>
<clipPath id="clip2_136_97">
<rect width="25" height="25" fill="white" transform="translate(66 1)"/>
</clipPath>
<clipPath id="clip3_136_97">
<rect width="25" height="25" fill="white" transform="translate(99 1)"/>
</clipPath>
<clipPath id="clip4_136_97">
<rect width="25" height="25" fill="white" transform="translate(132)"/>
</clipPath>
</defs>
</svg>
