<svg width="157" height="26" viewBox="0 0 157 26" fill="none" xmlns="http://www.w3.org/2000/svg">
<g clip-path="url(#clip0_136_96)">
<path fill-rule="evenodd" clip-rule="evenodd" d="M106.992 15.4586C107.363 15.7292 107.517 16.2042 107.376 16.6439L105.213 23.3027L110.878 19.1865C111.251 18.9159 111.751 18.9159 112.123 19.1865L117.788 23.3027L115.623 16.6409C115.482 16.2042 115.637 15.7292 116.009 15.4586L121.675 11.3424H114.672C114.212 11.3424 113.806 11.0468 113.664 10.6101L111.5 3.94977L109.337 10.6086C109.268 10.8219 109.134 11.0079 108.953 11.1398C108.772 11.2717 108.553 11.3427 108.329 11.3424H101.325L106.992 15.4586ZM99.0527 10.6042C99.1954 10.1659 99.5998 9.87183 100.06 9.87183H108.031L110.492 2.2924C110.635 1.85419 111.039 1.56006 111.5 1.56006C111.96 1.56006 112.366 1.85417 112.507 2.29242L114.97 9.87183H122.941C123.401 9.87183 123.806 10.1659 123.948 10.6042C124.089 11.0424 123.935 11.5174 123.563 11.788L117.114 16.4718L119.579 24.0527C119.72 24.4909 119.566 24.9659 119.192 25.2365C119.007 25.3718 118.788 25.4395 118.572 25.4395C118.353 25.4395 118.134 25.3718 117.948 25.2351L111.5 20.5512L105.054 25.2351C104.682 25.5071 104.181 25.5071 103.807 25.2365C103.435 24.9659 103.281 24.4909 103.422 24.0512L105.887 16.4718L99.438 11.788C99.0645 11.5174 98.9101 11.0424 99.0527 10.6042H99.0527Z" fill="black"/>
</g>
<g clip-path="url(#clip1_136_96)">
<path fill-rule="evenodd" clip-rule="evenodd" d="M139.992 14.4586C140.363 14.7292 140.517 15.2042 140.376 15.6439L138.213 22.3027L143.878 18.1865C144.251 17.9159 144.751 17.9159 145.123 18.1865L150.788 22.3027L148.623 15.6409C148.482 15.2042 148.637 14.7292 149.009 14.4586L154.675 10.3424H147.672C147.212 10.3424 146.806 10.0468 146.664 9.61006L144.5 2.94977L142.337 9.60859C142.268 9.82189 142.134 10.0079 141.953 10.1398C141.772 10.2717 141.553 10.3427 141.329 10.3424H134.325L139.992 14.4586ZM132.053 9.60417C132.195 9.16594 132.6 8.87183 133.06 8.87183H141.031L143.492 1.2924C143.635 0.854186 144.039 0.560059 144.5 0.560059C144.96 0.560059 145.366 0.854173 145.507 1.29242L147.97 8.87183H155.941C156.401 8.87183 156.806 9.16594 156.948 9.60417C157.089 10.0424 156.935 10.5174 156.563 10.788L150.114 15.4718L152.579 23.0527C152.72 23.4909 152.566 23.9659 152.192 24.2365C152.007 24.3718 151.788 24.4395 151.572 24.4395C151.353 24.4395 151.134 24.3718 150.948 24.2351L144.5 19.5512L138.054 24.2351C137.682 24.5071 137.181 24.5071 136.807 24.2365C136.435 23.9659 136.281 23.4909 136.422 23.0512L138.887 15.4718L132.438 10.788C132.064 10.5174 131.91 10.0424 132.053 9.60417H132.053Z" fill="black"/>
</g>
<g clip-path="url(#clip2_136_96)">
<path fill-rule="evenodd" clip-rule="evenodd" d="M66.0532 10.6027C66.1958 10.1659 66.6002 9.87183 67.0605 9.87183H75.0296L77.4914 2.2924V2.29094C77.6355 1.85417 78.0399 1.56006 78.5002 1.56006C78.959 1.56006 79.3649 1.85417 79.5076 2.29242L81.9708 9.87183H89.9399C90.4002 9.87183 90.8046 10.1659 90.9473 10.6027C91.0899 11.0395 90.937 11.5159 90.5634 11.788L84.1149 16.4733L86.5782 24.0542C86.7208 24.4924 86.5634 24.9689 86.1899 25.238C86.0046 25.3718 85.787 25.4397 85.5693 25.4397C85.3517 25.4397 85.134 25.3718 84.9473 25.2365L78.5002 20.5527L72.0546 25.2365C71.6826 25.5071 71.1811 25.5071 70.809 25.238C70.4355 24.9689 70.2796 24.4924 70.4223 24.0527L72.8855 16.4733L66.4355 11.788C66.0634 11.5159 65.909 11.0395 66.0532 10.6027" fill="black"/>
</g>
<g clip-path="url(#clip3_136_96)">
<path fill-rule="evenodd" clip-rule="evenodd" d="M33.0532 10.6027C33.1958 10.1659 33.6002 9.87183 34.0605 9.87183H42.0296L44.4914 2.2924V2.29094C44.6355 1.85417 45.0399 1.56006 45.5002 1.56006C45.959 1.56006 46.3649 1.85417 46.5076 2.29242L48.9708 9.87183H56.9399C57.4002 9.87183 57.8046 10.1659 57.9473 10.6027C58.0899 11.0395 57.937 11.5159 57.5634 11.788L51.1149 16.4733L53.5782 24.0542C53.7208 24.4924 53.5634 24.9689 53.1899 25.238C53.0046 25.3718 52.787 25.4397 52.5693 25.4397C52.3517 25.4397 52.134 25.3718 51.9473 25.2365L45.5002 20.5527L39.0546 25.2365C38.6826 25.5071 38.1811 25.5071 37.809 25.238C37.4355 24.9689 37.2796 24.4924 37.4223 24.0527L39.8855 16.4733L33.4355 11.788C33.0634 11.5159 32.909 11.0395 33.0532 10.6027" fill="black"/>
</g>
<g clip-path="url(#clip4_136_96)">
<path fill-rule="evenodd" clip-rule="evenodd" d="M0.0531503 9.6027C0.195793 9.16594 0.600208 8.87183 1.06049 8.87183H9.02962L11.4914 1.2924V1.29094C11.6355 0.854173 12.0399 0.560059 12.5002 0.560059C12.959 0.560059 13.3649 0.854173 13.5076 1.29242L15.9708 8.87183H23.9399C24.4002 8.87183 24.8046 9.16594 24.9473 9.6027C25.0899 10.0395 24.937 10.5159 24.5634 10.788L18.1149 15.4733L20.5782 23.0542C20.7208 23.4924 20.5634 23.9689 20.1899 24.238C20.0046 24.3718 19.787 24.4397 19.5693 24.4397C19.3517 24.4397 19.134 24.3718 18.9473 24.2365L12.5002 19.5527L6.05462 24.2365C5.68256 24.5071 5.18109 24.5071 4.80902 24.238C4.43549 23.9689 4.27962 23.4924 4.42226 23.0527L6.88549 15.4733L0.435494 10.788C0.0634369 10.5159 -0.0909774 10.0395 0.0531503 9.60272" fill="black"/>
</g>
<defs>
<clipPath id="clip0_136_96">
<rect width="25" height="25" fill="white" transform="matrix(-1 0 0 1 124 1)"/>
</clipPath>
<clipPath id="clip1_136_96">
<rect width="25" height="25" fill="white" transform="matrix(-1 0 0 1 157 0)"/>
</clipPath>
<clipPath id="clip2_136_96">
<rect width="25" height="25" fill="white" transform="matrix(-1 0 0 1 91 1)"/>
</clipPath>
<clipPath id="clip3_136_96">
<rect width="25" height="25" fill="white" transform="matrix(-1 0 0 1 58 1)"/>
</clipPath>
<clipPath id="clip4_136_96">
<rect width="25" height="25" fill="white" transform="matrix(-1 0 0 1 25 0)"/>
</clipPath>
</defs>
</svg>
